<svg width="384" height="384" viewBox="0 0 384 384" fill="none" xmlns="http://www.w3.org/2000/svg">
<g filter="url(#filter0_i_17_2)">
<rect width="384" height="384" rx="27.824" fill="white"/>
<path d="M240 101.333V133.333" stroke="#7E869E" stroke-opacity="0.25" stroke-width="10" stroke-linecap="round"/>
<path d="M240 218.667V261.333" stroke="#7E869E" stroke-opacity="0.25" stroke-width="10" stroke-linecap="round"/>
<path d="M266.667 148C266.667 136.954 257.712 128 246.667 128H233.333C222.288 128 213.333 136.954 213.333 148V204C213.333 215.046 222.288 224 233.333 224H246.667C257.712 224 266.667 215.046 266.667 204V148Z" fill="#007AFF"/>
<path d="M144 133.333V186.667" stroke="#7E869E" stroke-opacity="0.25" stroke-width="10" stroke-linecap="round"/>
<path d="M144 240V282.667" stroke="#7E869E" stroke-opacity="0.25" stroke-width="10" stroke-linecap="round"/>
<path d="M170.667 201.333C170.667 190.288 161.712 181.333 150.667 181.333H137.333C126.288 181.333 117.333 190.288 117.333 201.333V225.333C117.333 236.379 126.288 245.333 137.333 245.333H150.667C161.712 245.333 170.667 236.379 170.667 225.333V201.333Z" fill="#007AFF"/>
<path d="M45.772 353V326.18H57.076C58.756 326.18 60.208 326.48 61.432 327.08C62.656 327.656 63.592 328.496 64.24 329.6C64.888 330.68 65.212 331.964 65.212 333.452C65.212 334.748 64.876 335.936 64.204 337.016C63.556 338.072 62.536 338.912 61.144 339.536V337.736C62.368 338.216 63.364 338.828 64.132 339.572C64.9 340.292 65.452 341.108 65.788 342.02C66.148 342.932 66.328 343.892 66.328 344.9C66.328 347.42 65.5 349.4 63.844 350.84C62.212 352.28 59.968 353 57.112 353H45.772ZM50.02 349.22H57.436C58.852 349.22 59.98 348.836 60.82 348.068C61.66 347.276 62.08 346.232 62.08 344.936C62.08 343.616 61.66 342.572 60.82 341.804C59.98 341.012 58.852 340.616 57.436 340.616H50.02V349.22ZM50.02 336.872H57.184C58.336 336.872 59.26 336.548 59.956 335.9C60.652 335.228 61 334.352 61 333.272C61 332.192 60.652 331.352 59.956 330.752C59.26 330.152 58.336 329.852 57.184 329.852H50.02V336.872ZM78.3658 353.432C76.4218 353.432 74.6938 352.988 73.1818 352.1C71.6938 351.188 70.5298 349.964 69.6898 348.428C68.8498 346.868 68.4298 345.128 68.4298 343.208C68.4298 341.24 68.8498 339.5 69.6898 337.988C70.5538 336.476 71.7058 335.288 73.1458 334.424C74.5858 333.536 76.2178 333.092 78.0418 333.092C79.5058 333.092 80.8138 333.344 81.9658 333.848C83.1178 334.352 84.0898 335.048 84.8818 335.936C85.6738 336.8 86.2738 337.796 86.6818 338.924C87.1138 340.052 87.3298 341.252 87.3298 342.524C87.3298 342.836 87.3178 343.16 87.2938 343.496C87.2698 343.832 87.2218 344.144 87.1498 344.432H71.6338V341.192H84.8458L82.9018 342.668C83.1418 341.492 83.0578 340.448 82.6498 339.536C82.2658 338.6 81.6658 337.868 80.8498 337.34C80.0578 336.788 79.1218 336.512 78.0418 336.512C76.9618 336.512 76.0018 336.788 75.1618 337.34C74.3218 337.868 73.6738 338.636 73.2178 339.644C72.7618 340.628 72.5818 341.828 72.6778 343.244C72.5578 344.564 72.7378 345.716 73.2178 346.7C73.7218 347.684 74.4178 348.452 75.3058 349.004C76.2178 349.556 77.2498 349.832 78.4018 349.832C79.5778 349.832 80.5738 349.568 81.3898 349.04C82.2298 348.512 82.8898 347.828 83.3698 346.988L86.6818 348.608C86.2978 349.52 85.6978 350.348 84.8818 351.092C84.0898 351.812 83.1298 352.388 82.0018 352.82C80.8978 353.228 79.6858 353.432 78.3658 353.432ZM90.2199 353V333.524H94.1079V337.34L93.6399 336.836C94.1199 335.612 94.8879 334.688 95.9439 334.064C96.9999 333.416 98.2239 333.092 99.6159 333.092C101.056 333.092 102.328 333.404 103.432 334.028C104.536 334.652 105.4 335.516 106.024 336.62C106.648 337.724 106.96 338.996 106.96 340.436V353H102.928V341.516C102.928 340.532 102.748 339.704 102.388 339.032C102.028 338.336 101.512 337.808 100.84 337.448C100.192 337.064 99.4479 336.872 98.6079 336.872C97.7679 336.872 97.0119 337.064 96.3399 337.448C95.6919 337.808 95.1879 338.336 94.8279 339.032C94.4679 339.728 94.2879 340.556 94.2879 341.516V353H90.2199ZM119.486 353.432C117.542 353.432 115.814 352.988 114.302 352.1C112.814 351.188 111.626 349.964 110.738 348.428C109.874 346.892 109.442 345.152 109.442 343.208C109.442 341.288 109.874 339.56 110.738 338.024C111.602 336.488 112.79 335.288 114.302 334.424C115.814 333.536 117.542 333.092 119.486 333.092C120.806 333.092 122.042 333.332 123.194 333.812C124.346 334.268 125.342 334.904 126.182 335.72C127.046 336.536 127.682 337.484 128.09 338.564L124.526 340.22C124.118 339.212 123.458 338.408 122.546 337.808C121.658 337.184 120.638 336.872 119.486 336.872C118.382 336.872 117.386 337.148 116.498 337.7C115.634 338.228 114.95 338.984 114.446 339.968C113.942 340.928 113.69 342.02 113.69 343.244C113.69 344.468 113.942 345.572 114.446 346.556C114.95 347.516 115.634 348.272 116.498 348.824C117.386 349.376 118.382 349.652 119.486 349.652C120.662 349.652 121.682 349.352 122.546 348.752C123.434 348.128 124.094 347.3 124.526 346.268L128.09 347.96C127.706 348.992 127.082 349.928 126.218 350.768C125.378 351.584 124.382 352.232 123.23 352.712C122.078 353.192 120.83 353.432 119.486 353.432ZM130.986 353V325.748H135.054V337.34L134.406 336.836C134.886 335.612 135.654 334.688 136.71 334.064C137.766 333.416 138.99 333.092 140.382 333.092C141.822 333.092 143.094 333.404 144.198 334.028C145.302 334.652 146.166 335.516 146.79 336.62C147.414 337.724 147.726 338.984 147.726 340.4V353H143.694V341.516C143.694 340.532 143.502 339.704 143.118 339.032C142.758 338.336 142.254 337.808 141.606 337.448C140.958 337.064 140.214 336.872 139.374 336.872C138.558 336.872 137.814 337.064 137.142 337.448C136.494 337.808 135.978 338.336 135.594 339.032C135.234 339.728 135.054 340.556 135.054 341.516V353H130.986ZM150.999 353V333.524H154.887V337.736L154.383 337.088C154.791 335.768 155.535 334.772 156.615 334.1C157.695 333.428 158.931 333.092 160.323 333.092C161.883 333.092 163.263 333.512 164.463 334.352C165.687 335.168 166.503 336.26 166.911 337.628L165.759 337.736C166.335 336.176 167.211 335.012 168.387 334.244C169.587 333.476 170.955 333.092 172.491 333.092C173.835 333.092 175.047 333.404 176.127 334.028C177.231 334.652 178.107 335.516 178.755 336.62C179.403 337.724 179.727 338.984 179.727 340.4V353H175.659V341.516C175.659 340.532 175.479 339.704 175.119 339.032C174.783 338.336 174.303 337.808 173.679 337.448C173.079 337.064 172.371 336.872 171.555 336.872C170.739 336.872 170.019 337.064 169.395 337.448C168.771 337.808 168.279 338.336 167.919 339.032C167.559 339.728 167.379 340.556 167.379 341.516V353H163.347V341.516C163.347 340.532 163.167 339.704 162.807 339.032C162.471 338.336 161.991 337.808 161.367 337.448C160.767 337.064 160.047 336.872 159.207 336.872C158.391 336.872 157.671 337.064 157.047 337.448C156.423 337.808 155.931 338.336 155.571 339.032C155.235 339.728 155.067 340.556 155.067 341.516V353H150.999ZM188.833 353.432C187.513 353.432 186.349 353.204 185.341 352.748C184.357 352.268 183.589 351.62 183.037 350.804C182.485 349.964 182.209 348.98 182.209 347.852C182.209 346.796 182.437 345.848 182.893 345.008C183.373 344.168 184.105 343.46 185.089 342.884C186.073 342.308 187.309 341.9 188.797 341.66L195.565 340.544V343.748L189.589 344.792C188.509 344.984 187.717 345.332 187.213 345.836C186.709 346.316 186.457 346.94 186.457 347.708C186.457 348.452 186.733 349.064 187.285 349.544C187.861 350 188.593 350.228 189.481 350.228C190.585 350.228 191.545 349.988 192.361 349.508C193.201 349.028 193.849 348.392 194.305 347.6C194.761 346.784 194.989 345.884 194.989 344.9V339.896C194.989 338.936 194.629 338.156 193.909 337.556C193.213 336.932 192.277 336.62 191.101 336.62C190.021 336.62 189.073 336.908 188.257 337.484C187.465 338.036 186.877 338.756 186.493 339.644L183.109 337.952C183.469 336.992 184.057 336.152 184.873 335.432C185.689 334.688 186.637 334.112 187.717 333.704C188.821 333.296 189.985 333.092 191.209 333.092C192.745 333.092 194.101 333.38 195.277 333.956C196.477 334.532 197.401 335.336 198.049 336.368C198.721 337.376 199.057 338.552 199.057 339.896V353H195.169V349.472L195.997 349.58C195.541 350.372 194.953 351.056 194.233 351.632C193.537 352.208 192.733 352.652 191.821 352.964C190.933 353.276 189.937 353.432 188.833 353.432ZM202.734 353V333.524H206.622V337.448L206.262 336.872C206.694 335.6 207.39 334.688 208.35 334.136C209.31 333.56 210.462 333.272 211.806 333.272H212.994V336.98H211.302C209.958 336.98 208.866 337.4 208.026 338.24C207.21 339.056 206.802 340.232 206.802 341.768V353H202.734ZM214.697 353V325.748H218.765V344L217.181 343.604L226.937 333.524H232.013L224.669 341.336L232.337 353H227.657L220.817 342.668L223.229 342.344L217.469 348.464L218.765 345.764V353H214.697ZM247.68 353.216C245.64 353.216 244.056 352.64 242.928 351.488C241.8 350.336 241.236 348.716 241.236 346.628V337.196H237.816V333.524H238.356C239.268 333.524 239.976 333.26 240.48 332.732C240.984 332.204 241.236 331.484 241.236 330.572V329.06H245.304V333.524H249.732V337.196H245.304V346.448C245.304 347.12 245.412 347.696 245.628 348.176C245.844 348.632 246.192 348.992 246.672 349.256C247.152 349.496 247.776 349.616 248.544 349.616C248.736 349.616 248.952 349.604 249.192 349.58C249.432 349.556 249.66 349.532 249.876 349.508V353C249.54 353.048 249.168 353.096 248.76 353.144C248.352 353.192 247.992 353.216 247.68 353.216ZM252.766 353V333.524H256.654V337.448L256.294 336.872C256.726 335.6 257.422 334.688 258.382 334.136C259.342 333.56 260.494 333.272 261.838 333.272H263.026V336.98H261.334C259.99 336.98 258.898 337.4 258.058 338.24C257.242 339.056 256.834 340.232 256.834 341.768V353H252.766ZM270.56 353.432C269.24 353.432 268.076 353.204 267.068 352.748C266.084 352.268 265.316 351.62 264.764 350.804C264.212 349.964 263.936 348.98 263.936 347.852C263.936 346.796 264.164 345.848 264.62 345.008C265.1 344.168 265.832 343.46 266.816 342.884C267.8 342.308 269.036 341.9 270.524 341.66L277.292 340.544V343.748L271.316 344.792C270.236 344.984 269.444 345.332 268.94 345.836C268.436 346.316 268.184 346.94 268.184 347.708C268.184 348.452 268.46 349.064 269.012 349.544C269.588 350 270.32 350.228 271.208 350.228C272.312 350.228 273.272 349.988 274.088 349.508C274.928 349.028 275.576 348.392 276.032 347.6C276.488 346.784 276.716 345.884 276.716 344.9V339.896C276.716 338.936 276.356 338.156 275.636 337.556C274.94 336.932 274.004 336.62 272.828 336.62C271.748 336.62 270.8 336.908 269.984 337.484C269.192 338.036 268.604 338.756 268.22 339.644L264.836 337.952C265.196 336.992 265.784 336.152 266.6 335.432C267.416 334.688 268.364 334.112 269.444 333.704C270.548 333.296 271.712 333.092 272.936 333.092C274.472 333.092 275.828 333.38 277.004 333.956C278.204 334.532 279.128 335.336 279.776 336.368C280.448 337.376 280.784 338.552 280.784 339.896V353H276.896V349.472L277.724 349.58C277.268 350.372 276.68 351.056 275.96 351.632C275.264 352.208 274.46 352.652 273.548 352.964C272.66 353.276 271.664 353.432 270.56 353.432ZM293.461 353.432C291.589 353.432 289.909 352.988 288.421 352.1C286.957 351.188 285.793 349.964 284.929 348.428C284.089 346.892 283.669 345.164 283.669 343.244C283.669 341.324 284.101 339.596 284.965 338.06C285.829 336.524 286.993 335.312 288.457 334.424C289.921 333.536 291.577 333.092 293.425 333.092C294.985 333.092 296.365 333.404 297.565 334.028C298.765 334.652 299.713 335.516 300.409 336.62L299.797 337.556V325.748H303.829V353H299.977V349.04L300.445 349.796C299.773 350.972 298.813 351.872 297.565 352.496C296.317 353.12 294.949 353.432 293.461 353.432ZM293.857 349.652C294.985 349.652 295.993 349.376 296.881 348.824C297.793 348.272 298.501 347.516 299.005 346.556C299.533 345.572 299.797 344.468 299.797 343.244C299.797 342.02 299.533 340.928 299.005 339.968C298.501 339.008 297.793 338.252 296.881 337.7C295.993 337.148 294.985 336.872 293.857 336.872C292.729 336.872 291.709 337.148 290.797 337.7C289.885 338.252 289.177 339.008 288.673 339.968C288.169 340.928 287.917 342.02 287.917 343.244C287.917 344.468 288.169 345.572 288.673 346.556C289.177 347.516 289.873 348.272 290.761 348.824C291.673 349.376 292.705 349.652 293.857 349.652ZM316.642 353.432C314.698 353.432 312.97 352.988 311.458 352.1C309.97 351.188 308.806 349.964 307.966 348.428C307.126 346.868 306.706 345.128 306.706 343.208C306.706 341.24 307.126 339.5 307.966 337.988C308.83 336.476 309.982 335.288 311.422 334.424C312.862 333.536 314.494 333.092 316.318 333.092C317.782 333.092 319.09 333.344 320.242 333.848C321.394 334.352 322.366 335.048 323.158 335.936C323.95 336.8 324.55 337.796 324.958 338.924C325.39 340.052 325.606 341.252 325.606 342.524C325.606 342.836 325.594 343.16 325.57 343.496C325.546 343.832 325.498 344.144 325.426 344.432H309.91V341.192H323.122L321.178 342.668C321.418 341.492 321.334 340.448 320.926 339.536C320.542 338.6 319.942 337.868 319.126 337.34C318.334 336.788 317.398 336.512 316.318 336.512C315.238 336.512 314.278 336.788 313.438 337.34C312.598 337.868 311.95 338.636 311.494 339.644C311.038 340.628 310.858 341.828 310.954 343.244C310.834 344.564 311.014 345.716 311.494 346.7C311.998 347.684 312.694 348.452 313.582 349.004C314.494 349.556 315.526 349.832 316.678 349.832C317.854 349.832 318.85 349.568 319.666 349.04C320.506 348.512 321.166 347.828 321.646 346.988L324.958 348.608C324.574 349.52 323.974 350.348 323.158 351.092C322.366 351.812 321.406 352.388 320.278 352.82C319.174 353.228 317.962 353.432 316.642 353.432ZM328.496 353V333.524H332.384V337.448L332.024 336.872C332.456 335.6 333.152 334.688 334.112 334.136C335.072 333.56 336.224 333.272 337.568 333.272H338.756V336.98H337.064C335.72 336.98 334.628 337.4 333.788 338.24C332.972 339.056 332.564 340.232 332.564 341.768V353H328.496Z" fill="#007AFF"/>
<path d="M308.492 130.2C308.602 128.824 307.576 127.618 306.2 127.508L283.772 125.709C282.396 125.599 281.19 126.625 281.08 128.001C280.97 129.377 281.996 130.583 283.372 130.693L303.308 132.292L301.709 152.228C301.599 153.604 302.625 154.81 304.001 154.92C305.377 155.03 306.583 154.004 306.693 152.628L308.492 130.2ZM205 216L206.621 217.903L307.621 131.903L306 130L304.379 128.097L203.379 214.097L205 216Z" fill="#007AFF"/>
<line x1="167.745" y1="176.209" x2="206.745" y2="214.209" stroke="#007AFF" stroke-width="5"/>
<line x1="86.1825" y1="266.283" x2="171.182" y2="176.283" stroke="#007AFF" stroke-width="5"/>
</g>
<defs>
<filter id="filter0_i_17_2" x="0" y="0" width="384" height="394.434" filterUnits="userSpaceOnUse" color-interpolation-filters="sRGB">
<feFlood flood-opacity="0" result="BackgroundImageFix"/>
<feBlend mode="normal" in="SourceGraphic" in2="BackgroundImageFix" result="shape"/>
<feColorMatrix in="SourceAlpha" type="matrix" values="0 0 0 0 0 0 0 0 0 0 0 0 0 0 0 0 0 0 127 0" result="hardAlpha"/>
<feMorphology radius="3.478" operator="dilate" in="SourceAlpha" result="effect1_innerShadow_17_2"/>
<feOffset dy="10.434"/>
<feGaussianBlur stdDeviation="8.695"/>
<feComposite in2="hardAlpha" operator="arithmetic" k2="-1" k3="1"/>
<feColorMatrix type="matrix" values="0 0 0 0 0.586519 0 0 0 0 0.564364 0 0 0 0 0.607244 0 0 0 0.22 0"/>
<feBlend mode="normal" in2="shape" result="effect1_innerShadow_17_2"/>
</filter>
</defs>
</svg>
