<svg width="200" height="200" viewBox="0 0 200 200" fill="none" xmlns="http://www.w3.org/2000/svg">
<circle cx="100" cy="100" r="100" fill="#FF0000"/>
<path d="M180 100C180 144.183 144.183 180 100 180C55.8172 180 20 144.183 20 100C20 55.8172 55.8172 20 100 20C144.183 20 180 55.8172 180 100Z" fill="white"/>
<mask id="mask0_4_84" style="mask-type:alpha" maskUnits="userSpaceOnUse" x="20" y="20" width="160" height="160">
<path d="M180 100C180 144.183 144.183 180 100 180C55.8172 180 20 144.183 20 100C20 55.8172 55.8172 20 100 20C144.183 20 180 55.8172 180 100Z" fill="white"/>
</mask>
<g mask="url(#mask0_4_84)">
<path d="M53.0483 76.4H42.0083V66.8H74.6483V76.4H63.6083V134H53.0483V76.4ZM98.289 134.96C93.169 134.96 89.297 133.52 86.673 130.64C84.049 127.696 82.737 123.504 82.737 118.064V114.224H92.721V118.832C92.721 123.184 94.545 125.36 98.193 125.36C99.985 125.36 101.329 124.848 102.225 123.824C103.185 122.736 103.665 121.008 103.665 118.64C103.665 115.824 103.025 113.36 101.745 111.248C100.465 109.072 98.097 106.48 94.641 103.472C90.289 99.632 87.249 96.176 85.521 93.104C83.793 89.968 82.929 86.448 82.929 82.544C82.929 77.232 84.273 73.136 86.961 70.256C89.649 67.312 93.553 65.84 98.673 65.84C103.729 65.84 107.537 67.312 110.097 70.256C112.721 73.136 114.033 77.296 114.033 82.736V85.52H104.049V82.064C104.049 79.76 103.601 78.096 102.705 77.072C101.809 75.984 100.497 75.44 98.769 75.44C95.249 75.44 93.489 77.584 93.489 81.872C93.489 84.304 94.129 86.576 95.409 88.688C96.753 90.8 99.153 93.36 102.609 96.368C107.025 100.208 110.065 103.696 111.729 106.832C113.393 109.968 114.225 113.648 114.225 117.872C114.225 123.376 112.849 127.6 110.097 130.544C107.409 133.488 103.473 134.96 98.289 134.96ZM125.08 66.8H141.208C146.456 66.8 150.392 68.208 153.016 71.024C155.64 73.84 156.952 77.968 156.952 83.408V117.392C156.952 122.832 155.64 126.96 153.016 129.776C150.392 132.592 146.456 134 141.208 134H125.08V66.8ZM141.016 124.4C142.744 124.4 144.056 123.888 144.952 122.864C145.912 121.84 146.392 120.176 146.392 117.872V82.928C146.392 80.624 145.912 78.96 144.952 77.936C144.056 76.912 142.744 76.4 141.016 76.4H135.64V124.4H141.016Z" fill="#1E1E1E"/>
</g>
</svg>
