<svg width="384" height="384" viewBox="0 0 384 384" fill="none" xmlns="http://www.w3.org/2000/svg">
<rect width="384" height="384" rx="27.824" fill="#0D0E0E"/>
<circle cx="43" cy="40" r="11" fill="#ED6A5E"/>
<circle cx="81" cy="40" r="11" fill="#F4BF4F"/>
<circle cx="119" cy="40" r="11" fill="#61C554"/>
<path d="M46.2 138.44L48 135.72C49.0667 136.467 50.2 137.107 51.4 137.64C52.6267 138.147 53.96 138.4 55.4 138.4C56.8133 138.4 57.88 138.12 58.6 137.56C59.3467 136.973 59.72 136.227 59.72 135.32C59.72 134.573 59.4133 133.947 58.8 133.44C58.2133 132.933 57.4533 132.48 56.52 132.08C55.5867 131.68 54.5867 131.28 53.52 130.88C52.4533 130.48 51.4533 130.013 50.52 129.48C49.5867 128.947 48.8133 128.28 48.2 127.48C47.6133 126.68 47.32 125.707 47.32 124.56C47.32 123.28 47.6533 122.173 48.32 121.24C49.0133 120.28 49.9733 119.547 51.2 119.04C52.4267 118.533 53.8267 118.28 55.4 118.28C57.1867 118.28 58.6667 118.587 59.84 119.2C61.0133 119.787 62.0533 120.533 62.96 121.44L60.92 123.76C60.0133 123.04 59.1333 122.493 58.28 122.12C57.4533 121.72 56.4 121.52 55.12 121.52C53.8933 121.52 52.92 121.787 52.2 122.32C51.5067 122.853 51.16 123.573 51.16 124.48C51.16 125.12 51.4533 125.68 52.04 126.16C52.6533 126.613 53.4267 127.027 54.36 127.4C55.32 127.747 56.32 128.12 57.36 128.52C58.4267 128.92 59.4267 129.4 60.36 129.96C61.32 130.493 62.0933 131.173 62.68 132C63.2933 132.8 63.6 133.813 63.6 135.04C63.6 136.347 63.24 137.493 62.52 138.48C61.8 139.467 60.7867 140.24 59.48 140.8C58.1733 141.36 56.64 141.64 54.88 141.64C53.84 141.64 52.7733 141.507 51.68 141.24C50.6133 140.947 49.6133 140.56 48.68 140.08C47.7467 139.6 46.92 139.053 46.2 138.44ZM53.84 119.68V113.12H56.6V119.68H53.84ZM53.84 140.16H56.6V147.4H53.84V140.16ZM100.609 143.48C99.3554 143.48 98.2221 143.253 97.2088 142.8C96.2221 142.32 95.4354 141.667 94.8488 140.84C94.2888 139.987 94.0088 138.987 94.0088 137.84C94.0088 135.653 95.0754 133.987 97.2088 132.84C99.3688 131.693 102.902 130.933 107.809 130.56C107.782 129.76 107.595 129.027 107.249 128.36C106.929 127.693 106.409 127.173 105.689 126.8C104.995 126.4 104.075 126.2 102.929 126.2C102.129 126.2 101.342 126.307 100.569 126.52C99.7954 126.707 99.0488 126.973 98.3288 127.32C97.6088 127.667 96.9288 128.027 96.2888 128.4L94.8088 125.72C95.5288 125.293 96.3554 124.867 97.2888 124.44C98.2221 123.987 99.2221 123.627 100.289 123.36C101.382 123.093 102.489 122.96 103.609 122.96C105.422 122.96 106.929 123.293 108.129 123.96C109.329 124.627 110.235 125.573 110.849 126.8C111.462 128.027 111.769 129.507 111.769 131.24V143H108.529L108.209 140.48H108.089C107.049 141.28 105.875 141.987 104.569 142.6C103.262 143.187 101.942 143.48 100.609 143.48ZM101.729 140.32C102.769 140.32 103.795 140.093 104.809 139.64C105.822 139.187 106.822 138.547 107.809 137.72V133.08C105.249 133.267 103.235 133.56 101.769 133.96C100.329 134.36 99.3154 134.867 98.7288 135.48C98.1421 136.067 97.8488 136.76 97.8488 137.56C97.8488 138.2 98.0221 138.733 98.3688 139.16C98.7421 139.56 99.2221 139.853 99.8088 140.04C100.395 140.227 101.035 140.32 101.729 140.32ZM117.033 143V123.44H120.153L120.473 126H120.553C121.033 125.12 121.606 124.4 122.273 123.84C122.94 123.253 123.833 122.96 124.953 122.96C125.886 122.96 126.66 123.24 127.273 123.8C127.886 124.36 128.313 125.2 128.553 126.32C129.086 125.307 129.686 124.493 130.353 123.88C131.046 123.267 131.953 122.96 133.073 122.96C134.46 122.96 135.526 123.493 136.273 124.56C137.046 125.627 137.433 127.133 137.433 129.08V143H133.553V129.36C133.553 127.36 132.953 126.36 131.753 126.36C131.166 126.36 130.673 126.587 130.273 127.04C129.873 127.493 129.433 128.173 128.953 129.08V143H125.513V129.36C125.513 128.373 125.366 127.627 125.073 127.12C124.806 126.613 124.366 126.36 123.753 126.36C123.166 126.36 122.646 126.587 122.193 127.04C121.766 127.493 121.34 128.173 120.913 129.08V143H117.033ZM150.938 143.48C149.231 143.48 147.631 143.08 146.138 142.28C144.671 141.48 143.471 140.32 142.538 138.8C141.631 137.253 141.178 135.4 141.178 133.24C141.178 131.08 141.631 129.24 142.538 127.72C143.471 126.173 144.671 125 146.138 124.2C147.631 123.373 149.231 122.96 150.938 122.96C152.644 122.96 154.231 123.373 155.698 124.2C157.191 125 158.391 126.173 159.298 127.72C160.231 129.24 160.698 131.08 160.698 133.24C160.698 135.4 160.231 137.253 159.298 138.8C158.391 140.32 157.191 141.48 155.698 142.28C154.231 143.08 152.644 143.48 150.938 143.48ZM150.938 140.24C152.084 140.24 153.084 139.947 153.938 139.36C154.791 138.773 155.444 137.96 155.898 136.92C156.378 135.88 156.618 134.653 156.618 133.24C156.618 131.853 156.378 130.64 155.898 129.6C155.444 128.533 154.791 127.707 153.938 127.12C153.084 126.533 152.084 126.24 150.938 126.24C149.791 126.24 148.791 126.533 147.938 127.12C147.084 127.707 146.418 128.533 145.938 129.6C145.484 130.64 145.258 131.853 145.258 133.24C145.258 134.653 145.484 135.88 145.938 136.92C146.418 137.96 147.084 138.773 147.938 139.36C148.791 139.947 149.791 140.24 150.938 140.24ZM174.562 151.84C172.722 151.84 171.122 151.627 169.762 151.2C168.429 150.8 167.402 150.2 166.682 149.4C165.962 148.627 165.602 147.667 165.602 146.52C165.602 145.72 165.869 144.947 166.402 144.2C166.935 143.48 167.722 142.84 168.762 142.28V142.12C168.255 141.8 167.789 141.387 167.362 140.88C166.962 140.373 166.762 139.707 166.762 138.88C166.762 138.24 166.962 137.6 167.362 136.96C167.789 136.293 168.362 135.707 169.082 135.2V135.04C168.415 134.533 167.842 133.853 167.362 133C166.882 132.147 166.642 131.147 166.642 130C166.642 128.533 167.002 127.28 167.722 126.24C168.469 125.2 169.429 124.4 170.602 123.84C171.802 123.253 173.109 122.96 174.522 122.96C175.642 122.96 176.629 123.12 177.482 123.44H185.522V126.56H180.762C181.162 126.987 181.495 127.52 181.762 128.16C182.055 128.773 182.202 129.427 182.202 130.12C182.202 131.56 181.855 132.773 181.162 133.76C180.495 134.747 179.575 135.507 178.402 136.04C177.255 136.547 175.962 136.8 174.522 136.8C174.042 136.8 173.522 136.747 172.962 136.64C172.429 136.533 171.895 136.373 171.362 136.16C170.935 136.453 170.602 136.76 170.362 137.08C170.122 137.4 170.002 137.773 170.002 138.2C170.002 138.893 170.335 139.413 171.002 139.76C171.669 140.08 172.629 140.24 173.882 140.24H178.042C180.575 140.24 182.469 140.6 183.722 141.32C185.002 142.04 185.642 143.24 185.642 144.92C185.642 146.173 185.189 147.32 184.282 148.36C183.375 149.427 182.095 150.267 180.442 150.88C178.789 151.52 176.829 151.84 174.562 151.84ZM174.522 134.24C175.269 134.24 175.949 134.08 176.562 133.76C177.175 133.413 177.669 132.92 178.042 132.28C178.415 131.64 178.602 130.88 178.602 130C178.602 129.147 178.415 128.413 178.042 127.8C177.669 127.16 177.175 126.667 176.562 126.32C175.949 125.947 175.269 125.76 174.522 125.76C173.775 125.76 173.082 125.947 172.442 126.32C171.829 126.667 171.335 127.16 170.962 127.8C170.589 128.413 170.402 129.147 170.402 130C170.402 130.88 170.589 131.64 170.962 132.28C171.335 132.92 171.829 133.413 172.442 133.76C173.082 134.08 173.775 134.24 174.522 134.24ZM174.962 149.08C176.375 149.08 177.589 148.907 178.602 148.56C179.615 148.24 180.389 147.813 180.922 147.28C181.482 146.773 181.762 146.213 181.762 145.6C181.762 144.72 181.415 144.133 180.722 143.84C180.029 143.573 178.989 143.44 177.602 143.44H174.122C173.509 143.44 172.962 143.413 172.482 143.36C172.002 143.307 171.562 143.227 171.162 143.12C170.335 143.573 169.749 144.04 169.402 144.52C169.082 145.027 168.922 145.533 168.922 146.04C168.922 146.973 169.442 147.707 170.482 148.24C171.522 148.8 173.015 149.08 174.962 149.08ZM200.106 143.48C198.133 143.48 196.333 143.08 194.706 142.28C193.106 141.48 191.84 140.307 190.906 138.76C189.973 137.213 189.506 135.36 189.506 133.2C189.506 131.067 189.973 129.24 190.906 127.72C191.866 126.2 193.106 125.027 194.626 124.2C196.146 123.373 197.773 122.96 199.506 122.96C201.426 122.96 203.053 123.36 204.386 124.16C205.72 124.933 206.733 126.013 207.426 127.4C208.146 128.76 208.506 130.36 208.506 132.2C208.506 132.6 208.493 133 208.466 133.4C208.44 133.773 208.4 134.093 208.346 134.36H192.266V131.44H205.866L204.986 132.4C204.986 130.293 204.506 128.72 203.546 127.68C202.586 126.613 201.28 126.08 199.626 126.08C198.48 126.08 197.426 126.36 196.466 126.92C195.533 127.453 194.786 128.253 194.226 129.32C193.666 130.36 193.386 131.653 193.386 133.2C193.386 134.8 193.693 136.133 194.306 137.2C194.946 138.24 195.8 139.027 196.866 139.56C197.96 140.093 199.213 140.36 200.626 140.36C201.72 140.36 202.72 140.213 203.626 139.92C204.533 139.6 205.426 139.173 206.306 138.64L207.706 141.16C206.72 141.827 205.586 142.387 204.306 142.84C203.026 143.267 201.626 143.48 200.106 143.48ZM227.011 143.48C224.851 143.48 223.197 142.853 222.051 141.6C220.904 140.32 220.331 138.507 220.331 136.16V117.84H213.811V114.64H224.291V136.4C224.291 137.76 224.637 138.747 225.331 139.36C226.024 139.947 226.891 140.24 227.931 140.24C228.464 140.24 229.011 140.173 229.571 140.04C230.157 139.907 230.797 139.693 231.491 139.4L232.451 142.36C231.517 142.68 230.651 142.947 229.851 143.16C229.077 143.373 228.131 143.48 227.011 143.48ZM244.515 143.48C243.262 143.48 242.128 143.253 241.115 142.8C240.128 142.32 239.342 141.667 238.755 140.84C238.195 139.987 237.915 138.987 237.915 137.84C237.915 135.653 238.982 133.987 241.115 132.84C243.275 131.693 246.808 130.933 251.715 130.56C251.688 129.76 251.502 129.027 251.155 128.36C250.835 127.693 250.315 127.173 249.595 126.8C248.902 126.4 247.982 126.2 246.835 126.2C246.035 126.2 245.248 126.307 244.475 126.52C243.702 126.707 242.955 126.973 242.235 127.32C241.515 127.667 240.835 128.027 240.195 128.4L238.715 125.72C239.435 125.293 240.262 124.867 241.195 124.44C242.128 123.987 243.128 123.627 244.195 123.36C245.288 123.093 246.395 122.96 247.515 122.96C249.328 122.96 250.835 123.293 252.035 123.96C253.235 124.627 254.142 125.573 254.755 126.8C255.368 128.027 255.675 129.507 255.675 131.24V143H252.435L252.115 140.48H251.995C250.955 141.28 249.782 141.987 248.475 142.6C247.168 143.187 245.848 143.48 244.515 143.48ZM245.635 140.32C246.675 140.32 247.702 140.093 248.715 139.64C249.728 139.187 250.728 138.547 251.715 137.72V133.08C249.155 133.267 247.142 133.56 245.675 133.96C244.235 134.36 243.222 134.867 242.635 135.48C242.048 136.067 241.755 136.76 241.755 137.56C241.755 138.2 241.928 138.733 242.275 139.16C242.648 139.56 243.128 139.853 243.715 140.04C244.302 140.227 244.942 140.32 245.635 140.32ZM262.379 143V123.44H265.619L265.939 126.6H266.099C267.086 125.587 268.153 124.733 269.299 124.04C270.446 123.32 271.779 122.96 273.299 122.96C275.566 122.96 277.233 123.653 278.299 125.04C279.393 126.4 279.939 128.347 279.939 130.88V143H275.979V131.4C275.979 129.693 275.659 128.44 275.019 127.64C274.406 126.813 273.366 126.4 271.899 126.4C270.859 126.4 269.926 126.667 269.099 127.2C268.273 127.707 267.353 128.48 266.339 129.52V143H262.379ZM294.484 151.84C292.644 151.84 291.044 151.627 289.684 151.2C288.35 150.8 287.324 150.2 286.604 149.4C285.884 148.627 285.524 147.667 285.524 146.52C285.524 145.72 285.79 144.947 286.324 144.2C286.857 143.48 287.644 142.84 288.684 142.28V142.12C288.177 141.8 287.71 141.387 287.284 140.88C286.884 140.373 286.684 139.707 286.684 138.88C286.684 138.24 286.884 137.6 287.284 136.96C287.71 136.293 288.284 135.707 289.004 135.2V135.04C288.337 134.533 287.764 133.853 287.284 133C286.804 132.147 286.564 131.147 286.564 130C286.564 128.533 286.924 127.28 287.644 126.24C288.39 125.2 289.35 124.4 290.524 123.84C291.724 123.253 293.03 122.96 294.444 122.96C295.564 122.96 296.55 123.12 297.404 123.44H305.444V126.56H300.684C301.084 126.987 301.417 127.52 301.684 128.16C301.977 128.773 302.124 129.427 302.124 130.12C302.124 131.56 301.777 132.773 301.084 133.76C300.417 134.747 299.497 135.507 298.324 136.04C297.177 136.547 295.884 136.8 294.444 136.8C293.964 136.8 293.444 136.747 292.884 136.64C292.35 136.533 291.817 136.373 291.284 136.16C290.857 136.453 290.524 136.76 290.284 137.08C290.044 137.4 289.924 137.773 289.924 138.2C289.924 138.893 290.257 139.413 290.924 139.76C291.59 140.08 292.55 140.24 293.804 140.24H297.964C300.497 140.24 302.39 140.6 303.644 141.32C304.924 142.04 305.564 143.24 305.564 144.92C305.564 146.173 305.11 147.32 304.204 148.36C303.297 149.427 302.017 150.267 300.364 150.88C298.71 151.52 296.75 151.84 294.484 151.84ZM294.444 134.24C295.19 134.24 295.87 134.08 296.484 133.76C297.097 133.413 297.59 132.92 297.964 132.28C298.337 131.64 298.524 130.88 298.524 130C298.524 129.147 298.337 128.413 297.964 127.8C297.59 127.16 297.097 126.667 296.484 126.32C295.87 125.947 295.19 125.76 294.444 125.76C293.697 125.76 293.004 125.947 292.364 126.32C291.75 126.667 291.257 127.16 290.884 127.8C290.51 128.413 290.324 129.147 290.324 130C290.324 130.88 290.51 131.64 290.884 132.28C291.257 132.92 291.75 133.413 292.364 133.76C293.004 134.08 293.697 134.24 294.444 134.24ZM294.884 149.08C296.297 149.08 297.51 148.907 298.524 148.56C299.537 148.24 300.31 147.813 300.844 147.28C301.404 146.773 301.684 146.213 301.684 145.6C301.684 144.72 301.337 144.133 300.644 143.84C299.95 143.573 298.91 143.44 297.524 143.44H294.044C293.43 143.44 292.884 143.413 292.404 143.36C291.924 143.307 291.484 143.227 291.084 143.12C290.257 143.573 289.67 144.04 289.324 144.52C289.004 145.027 288.844 145.533 288.844 146.04C288.844 146.973 289.364 147.707 290.404 148.24C291.444 148.8 292.937 149.08 294.884 149.08ZM46.2 188.44L48 185.72C49.0667 186.467 50.2 187.107 51.4 187.64C52.6267 188.147 53.96 188.4 55.4 188.4C56.8133 188.4 57.88 188.12 58.6 187.56C59.3467 186.973 59.72 186.227 59.72 185.32C59.72 184.573 59.4133 183.947 58.8 183.44C58.2133 182.933 57.4533 182.48 56.52 182.08C55.5867 181.68 54.5867 181.28 53.52 180.88C52.4533 180.48 51.4533 180.013 50.52 179.48C49.5867 178.947 48.8133 178.28 48.2 177.48C47.6133 176.68 47.32 175.707 47.32 174.56C47.32 173.28 47.6533 172.173 48.32 171.24C49.0133 170.28 49.9733 169.547 51.2 169.04C52.4267 168.533 53.8267 168.28 55.4 168.28C57.1867 168.28 58.6667 168.587 59.84 169.2C61.0133 169.787 62.0533 170.533 62.96 171.44L60.92 173.76C60.0133 173.04 59.1333 172.493 58.28 172.12C57.4533 171.72 56.4 171.52 55.12 171.52C53.8933 171.52 52.92 171.787 52.2 172.32C51.5067 172.853 51.16 173.573 51.16 174.48C51.16 175.12 51.4533 175.68 52.04 176.16C52.6533 176.613 53.4267 177.027 54.36 177.4C55.32 177.747 56.32 178.12 57.36 178.52C58.4267 178.92 59.4267 179.4 60.36 179.96C61.32 180.493 62.0933 181.173 62.68 182C63.2933 182.8 63.6 183.813 63.6 185.04C63.6 186.347 63.24 187.493 62.52 188.48C61.8 189.467 60.7867 190.24 59.48 190.8C58.1733 191.36 56.64 191.64 54.88 191.64C53.84 191.64 52.7733 191.507 51.68 191.24C50.6133 190.947 49.6133 190.56 48.68 190.08C47.7467 189.6 46.92 189.053 46.2 188.44ZM53.84 169.68V163.12H56.6V169.68H53.84ZM53.84 190.16H56.6V197.4H53.84V190.16ZM102.609 201.84C100.769 201.84 99.1688 201.627 97.8088 201.2C96.4754 200.8 95.4488 200.2 94.7288 199.4C94.0088 198.627 93.6488 197.667 93.6488 196.52C93.6488 195.72 93.9154 194.947 94.4488 194.2C94.9821 193.48 95.7688 192.84 96.8088 192.28V192.12C96.3021 191.8 95.8354 191.387 95.4088 190.88C95.0088 190.373 94.8088 189.707 94.8088 188.88C94.8088 188.24 95.0088 187.6 95.4088 186.96C95.8354 186.293 96.4088 185.707 97.1288 185.2V185.04C96.4621 184.533 95.8888 183.853 95.4088 183C94.9288 182.147 94.6888 181.147 94.6888 180C94.6888 178.533 95.0488 177.28 95.7688 176.24C96.5154 175.2 97.4754 174.4 98.6488 173.84C99.8488 173.253 101.155 172.96 102.569 172.96C103.689 172.96 104.675 173.12 105.529 173.44H113.569V176.56H108.809C109.209 176.987 109.542 177.52 109.809 178.16C110.102 178.773 110.249 179.427 110.249 180.12C110.249 181.56 109.902 182.773 109.209 183.76C108.542 184.747 107.622 185.507 106.449 186.04C105.302 186.547 104.009 186.8 102.569 186.8C102.089 186.8 101.569 186.747 101.009 186.64C100.475 186.533 99.9421 186.373 99.4088 186.16C98.9821 186.453 98.6488 186.76 98.4088 187.08C98.1688 187.4 98.0488 187.773 98.0488 188.2C98.0488 188.893 98.3821 189.413 99.0488 189.76C99.7154 190.08 100.675 190.24 101.929 190.24H106.089C108.622 190.24 110.515 190.6 111.769 191.32C113.049 192.04 113.689 193.24 113.689 194.92C113.689 196.173 113.235 197.32 112.329 198.36C111.422 199.427 110.142 200.267 108.489 200.88C106.835 201.52 104.875 201.84 102.609 201.84ZM102.569 184.24C103.315 184.24 103.995 184.08 104.609 183.76C105.222 183.413 105.715 182.92 106.089 182.28C106.462 181.64 106.649 180.88 106.649 180C106.649 179.147 106.462 178.413 106.089 177.8C105.715 177.16 105.222 176.667 104.609 176.32C103.995 175.947 103.315 175.76 102.569 175.76C101.822 175.76 101.129 175.947 100.489 176.32C99.8754 176.667 99.3821 177.16 99.0088 177.8C98.6354 178.413 98.4488 179.147 98.4488 180C98.4488 180.88 98.6354 181.64 99.0088 182.28C99.3821 182.92 99.8754 183.413 100.489 183.76C101.129 184.08 101.822 184.24 102.569 184.24ZM103.009 199.08C104.422 199.08 105.635 198.907 106.649 198.56C107.662 198.24 108.435 197.813 108.969 197.28C109.529 196.773 109.809 196.213 109.809 195.6C109.809 194.72 109.462 194.133 108.769 193.84C108.075 193.573 107.035 193.44 105.649 193.44H102.169C101.555 193.44 101.009 193.413 100.529 193.36C100.049 193.307 99.6088 193.227 99.2088 193.12C98.3821 193.573 97.7954 194.04 97.4488 194.52C97.1288 195.027 96.9688 195.533 96.9688 196.04C96.9688 196.973 97.4888 197.707 98.5288 198.24C99.5688 198.8 101.062 199.08 103.009 199.08ZM127.193 193V176.64H118.433V173.44H131.153V193H127.193ZM128.833 169.64C127.98 169.64 127.273 169.387 126.713 168.88C126.153 168.347 125.873 167.653 125.873 166.8C125.873 165.947 126.153 165.267 126.713 164.76C127.273 164.227 127.98 163.96 128.833 163.96C129.686 163.96 130.393 164.227 130.953 164.76C131.513 165.267 131.793 165.947 131.793 166.8C131.793 167.653 131.513 168.347 130.953 168.88C130.393 169.387 129.686 169.64 128.833 169.64ZM148.338 193V172.08C148.338 170.533 148.618 169.16 149.178 167.96C149.764 166.76 150.644 165.827 151.818 165.16C153.018 164.493 154.551 164.16 156.418 164.16C157.431 164.16 158.404 164.253 159.338 164.44C160.298 164.627 161.231 164.907 162.138 165.28L161.258 168.2C160.511 167.88 159.791 167.653 159.098 167.52C158.431 167.387 157.684 167.32 156.858 167.32C155.258 167.32 154.084 167.733 153.338 168.56C152.618 169.36 152.258 170.507 152.258 172V193H148.338ZM142.858 176.64V173.64L148.458 173.44H160.057V176.64H142.858ZM178.642 193.48C176.669 193.48 175.109 193.133 173.962 192.44C172.842 191.747 172.042 190.787 171.562 189.56C171.082 188.333 170.842 186.907 170.842 185.28V176.64H165.482V173.68L171.002 173.44L171.522 167.28H174.802V173.44H184.042V176.64H174.802V185.28C174.802 186.373 174.949 187.307 175.242 188.08C175.535 188.827 176.029 189.387 176.722 189.76C177.415 190.107 178.349 190.28 179.522 190.28C180.402 190.28 181.202 190.213 181.922 190.08C182.642 189.92 183.335 189.72 184.002 189.48L184.802 192.36C183.922 192.653 182.975 192.907 181.962 193.12C180.975 193.36 179.869 193.48 178.642 193.48ZM46.2 238.44L48 235.72C49.0667 236.467 50.2 237.107 51.4 237.64C52.6267 238.147 53.96 238.4 55.4 238.4C56.8133 238.4 57.88 238.12 58.6 237.56C59.3467 236.973 59.72 236.227 59.72 235.32C59.72 234.573 59.4133 233.947 58.8 233.44C58.2133 232.933 57.4533 232.48 56.52 232.08C55.5867 231.68 54.5867 231.28 53.52 230.88C52.4533 230.48 51.4533 230.013 50.52 229.48C49.5867 228.947 48.8133 228.28 48.2 227.48C47.6133 226.68 47.32 225.707 47.32 224.56C47.32 223.28 47.6533 222.173 48.32 221.24C49.0133 220.28 49.9733 219.547 51.2 219.04C52.4267 218.533 53.8267 218.28 55.4 218.28C57.1867 218.28 58.6667 218.587 59.84 219.2C61.0133 219.787 62.0533 220.533 62.96 221.44L60.92 223.76C60.0133 223.04 59.1333 222.493 58.28 222.12C57.4533 221.72 56.4 221.52 55.12 221.52C53.8933 221.52 52.92 221.787 52.2 222.32C51.5067 222.853 51.16 223.573 51.16 224.48C51.16 225.12 51.4533 225.68 52.04 226.16C52.6533 226.613 53.4267 227.027 54.36 227.4C55.32 227.747 56.32 228.12 57.36 228.52C58.4267 228.92 59.4267 229.4 60.36 229.96C61.32 230.493 62.0933 231.173 62.68 232C63.2933 232.8 63.6 233.813 63.6 235.04C63.6 236.347 63.24 237.493 62.52 238.48C61.8 239.467 60.7867 240.24 59.48 240.8C58.1733 241.36 56.64 241.64 54.88 241.64C53.84 241.64 52.7733 241.507 51.68 241.24C50.6133 240.947 49.6133 240.56 48.68 240.08C47.7467 239.6 46.92 239.053 46.2 238.44ZM53.84 219.68V213.12H56.6V219.68H53.84ZM53.84 240.16H56.6V247.4H53.84V240.16ZM94.8888 243V214.64H98.8488V233.12H99.0088L108.649 223.44H113.089L98.8488 237.8V243H94.8888ZM109.689 243L102.529 233L104.889 230.48L114.049 243H109.689ZM126.953 243.48C125.246 243.48 123.646 243.08 122.153 242.28C120.686 241.48 119.486 240.32 118.553 238.8C117.646 237.253 117.193 235.4 117.193 233.24C117.193 231.08 117.646 229.24 118.553 227.72C119.486 226.173 120.686 225 122.153 224.2C123.646 223.373 125.246 222.96 126.953 222.96C128.66 222.96 130.246 223.373 131.713 224.2C133.206 225 134.406 226.173 135.313 227.72C136.246 229.24 136.713 231.08 136.713 233.24C136.713 235.4 136.246 237.253 135.313 238.8C134.406 240.32 133.206 241.48 131.713 242.28C130.246 243.08 128.66 243.48 126.953 243.48ZM126.953 240.24C128.1 240.24 129.1 239.947 129.953 239.36C130.806 238.773 131.46 237.96 131.913 236.92C132.393 235.88 132.633 234.653 132.633 233.24C132.633 231.853 132.393 230.64 131.913 229.6C131.46 228.533 130.806 227.707 129.953 227.12C129.1 226.533 128.1 226.24 126.953 226.24C125.806 226.24 124.806 226.533 123.953 227.12C123.1 227.707 122.433 228.533 121.953 229.6C121.5 230.64 121.273 231.853 121.273 233.24C121.273 234.653 121.5 235.88 121.953 236.92C122.433 237.96 123.1 238.773 123.953 239.36C124.806 239.947 125.806 240.24 126.953 240.24ZM154.658 243.48C152.684 243.48 151.124 243.133 149.978 242.44C148.858 241.747 148.058 240.787 147.578 239.56C147.098 238.333 146.858 236.907 146.858 235.28V226.64H141.498V223.68L147.018 223.44L147.538 217.28H150.818V223.44H160.057V226.64H150.818V235.28C150.818 236.373 150.964 237.307 151.258 238.08C151.551 238.827 152.044 239.387 152.738 239.76C153.431 240.107 154.364 240.28 155.538 240.28C156.418 240.28 157.218 240.213 157.938 240.08C158.658 239.92 159.351 239.72 160.018 239.48L160.818 242.36C159.938 242.653 158.991 242.907 157.978 243.12C156.991 243.36 155.884 243.48 154.658 243.48ZM172.522 243.48C170.229 243.48 168.535 242.8 167.442 241.44C166.375 240.08 165.842 238.12 165.842 235.56V223.44H169.802V235.04C169.802 236.773 170.109 238.053 170.722 238.88C171.362 239.68 172.415 240.08 173.882 240.08C174.922 240.08 175.855 239.827 176.682 239.32C177.509 238.813 178.402 237.987 179.362 236.84V223.44H183.322V243H180.082L179.762 239.76H179.602C178.642 240.853 177.589 241.747 176.442 242.44C175.322 243.133 174.015 243.48 172.522 243.48ZM46.2 288.44L48 285.72C49.0667 286.467 50.2 287.107 51.4 287.64C52.6267 288.147 53.96 288.4 55.4 288.4C56.8133 288.4 57.88 288.12 58.6 287.56C59.3467 286.973 59.72 286.227 59.72 285.32C59.72 284.573 59.4133 283.947 58.8 283.44C58.2133 282.933 57.4533 282.48 56.52 282.08C55.5867 281.68 54.5867 281.28 53.52 280.88C52.4533 280.48 51.4533 280.013 50.52 279.48C49.5867 278.947 48.8133 278.28 48.2 277.48C47.6133 276.68 47.32 275.707 47.32 274.56C47.32 273.28 47.6533 272.173 48.32 271.24C49.0133 270.28 49.9733 269.547 51.2 269.04C52.4267 268.533 53.8267 268.28 55.4 268.28C57.1867 268.28 58.6667 268.587 59.84 269.2C61.0133 269.787 62.0533 270.533 62.96 271.44L60.92 273.76C60.0133 273.04 59.1333 272.493 58.28 272.12C57.4533 271.72 56.4 271.52 55.12 271.52C53.8933 271.52 52.92 271.787 52.2 272.32C51.5067 272.853 51.16 273.573 51.16 274.48C51.16 275.12 51.4533 275.68 52.04 276.16C52.6533 276.613 53.4267 277.027 54.36 277.4C55.32 277.747 56.32 278.12 57.36 278.52C58.4267 278.92 59.4267 279.4 60.36 279.96C61.32 280.493 62.0933 281.173 62.68 282C63.2933 282.8 63.6 283.813 63.6 285.04C63.6 286.347 63.24 287.493 62.52 288.48C61.8 289.467 60.7867 290.24 59.48 290.8C58.1733 291.36 56.64 291.64 54.88 291.64C53.84 291.64 52.7733 291.507 51.68 291.24C50.6133 290.947 49.6133 290.56 48.68 290.08C47.7467 289.6 46.92 289.053 46.2 288.44ZM53.84 269.68V263.12H56.6V269.68H53.84ZM53.84 290.16H56.6V297.4H53.84V290.16ZM94.4888 301V273.44H97.7288L98.0488 275.84H98.1688C99.0488 275.013 100.062 274.333 101.209 273.8C102.355 273.24 103.515 272.96 104.689 272.96C106.422 272.96 107.875 273.373 109.049 274.2C110.249 275.027 111.155 276.187 111.769 277.68C112.409 279.173 112.729 280.92 112.729 282.92C112.729 285.16 112.315 287.067 111.489 288.64C110.662 290.213 109.582 291.413 108.249 292.24C106.915 293.067 105.475 293.48 103.929 293.48C103.049 293.48 102.102 293.267 101.089 292.84C100.102 292.413 99.1954 291.827 98.3688 291.08H98.2488L98.4488 294.6V301H94.4888ZM103.169 290.2C104.209 290.2 105.142 289.92 105.969 289.36C106.795 288.8 107.449 287.987 107.929 286.92C108.409 285.827 108.649 284.507 108.649 282.96C108.649 281.6 108.462 280.427 108.089 279.44C107.742 278.427 107.209 277.653 106.489 277.12C105.769 276.56 104.809 276.28 103.609 276.28C102.809 276.28 101.969 276.493 101.089 276.92C100.209 277.32 99.3288 277.987 98.4488 278.92V288.16C99.2754 288.88 100.115 289.4 100.969 289.72C101.822 290.04 102.555 290.2 103.169 290.2ZM126.953 293.48C125.246 293.48 123.646 293.08 122.153 292.28C120.686 291.48 119.486 290.32 118.553 288.8C117.646 287.253 117.193 285.4 117.193 283.24C117.193 281.08 117.646 279.24 118.553 277.72C119.486 276.173 120.686 275 122.153 274.2C123.646 273.373 125.246 272.96 126.953 272.96C128.66 272.96 130.246 273.373 131.713 274.2C133.206 275 134.406 276.173 135.313 277.72C136.246 279.24 136.713 281.08 136.713 283.24C136.713 285.4 136.246 287.253 135.313 288.8C134.406 290.32 133.206 291.48 131.713 292.28C130.246 293.08 128.66 293.48 126.953 293.48ZM126.953 290.24C128.1 290.24 129.1 289.947 129.953 289.36C130.806 288.773 131.46 287.96 131.913 286.92C132.393 285.88 132.633 284.653 132.633 283.24C132.633 281.853 132.393 280.64 131.913 279.6C131.46 278.533 130.806 277.707 129.953 277.12C129.1 276.533 128.1 276.24 126.953 276.24C125.806 276.24 124.806 276.533 123.953 277.12C123.1 277.707 122.433 278.533 121.953 279.6C121.5 280.64 121.273 281.853 121.273 283.24C121.273 284.653 121.5 285.88 121.953 286.92C122.433 287.96 123.1 288.773 123.953 289.36C124.806 289.947 125.806 290.24 126.953 290.24ZM144.458 293V273.44H147.738L148.058 278H148.178C149.191 276.4 150.431 275.16 151.898 274.28C153.364 273.4 154.964 272.96 156.698 272.96C157.444 272.96 158.124 273.027 158.738 273.16C159.351 273.293 159.951 273.493 160.538 273.76L159.658 277.16C158.991 276.92 158.418 276.76 157.938 276.68C157.458 276.573 156.844 276.52 156.098 276.52C154.684 276.52 153.324 276.92 152.018 277.72C150.711 278.52 149.511 279.907 148.418 281.88V293H144.458ZM178.642 293.48C176.669 293.48 175.109 293.133 173.962 292.44C172.842 291.747 172.042 290.787 171.562 289.56C171.082 288.333 170.842 286.907 170.842 285.28V276.64H165.482V273.68L171.002 273.44L171.522 267.28H174.802V273.44H184.042V276.64H174.802V285.28C174.802 286.373 174.949 287.307 175.242 288.08C175.535 288.827 176.029 289.387 176.722 289.76C177.415 290.107 178.349 290.28 179.522 290.28C180.402 290.28 181.202 290.213 181.922 290.08C182.642 289.92 183.335 289.72 184.002 289.48L184.802 292.36C183.922 292.653 182.975 292.907 181.962 293.12C180.975 293.36 179.869 293.48 178.642 293.48ZM196.306 293V272.08C196.306 270.533 196.586 269.16 197.146 267.96C197.733 266.76 198.613 265.827 199.786 265.16C200.986 264.493 202.52 264.16 204.386 264.16C205.4 264.16 206.373 264.253 207.306 264.44C208.266 264.627 209.2 264.907 210.106 265.28L209.226 268.2C208.48 267.88 207.76 267.653 207.066 267.52C206.4 267.387 205.653 267.32 204.826 267.32C203.226 267.32 202.053 267.733 201.306 268.56C200.586 269.36 200.226 270.507 200.226 272V293H196.306ZM190.826 276.64V273.64L196.426 273.44H208.026V276.64H190.826ZM222.891 293.48C221.184 293.48 219.584 293.08 218.091 292.28C216.624 291.48 215.424 290.32 214.491 288.8C213.584 287.253 213.131 285.4 213.131 283.24C213.131 281.08 213.584 279.24 214.491 277.72C215.424 276.173 216.624 275 218.091 274.2C219.584 273.373 221.184 272.96 222.891 272.96C224.597 272.96 226.184 273.373 227.651 274.2C229.144 275 230.344 276.173 231.251 277.72C232.184 279.24 232.651 281.08 232.651 283.24C232.651 285.4 232.184 287.253 231.251 288.8C230.344 290.32 229.144 291.48 227.651 292.28C226.184 293.08 224.597 293.48 222.891 293.48ZM222.891 290.24C224.037 290.24 225.037 289.947 225.891 289.36C226.744 288.773 227.397 287.96 227.851 286.92C228.331 285.88 228.571 284.653 228.571 283.24C228.571 281.853 228.331 280.64 227.851 279.6C227.397 278.533 226.744 277.707 225.891 277.12C225.037 276.533 224.037 276.24 222.891 276.24C221.744 276.24 220.744 276.533 219.891 277.12C219.037 277.707 218.371 278.533 217.891 279.6C217.437 280.64 217.211 281.853 217.211 283.24C217.211 284.653 217.437 285.88 217.891 286.92C218.371 287.96 219.037 288.773 219.891 289.36C220.744 289.947 221.744 290.24 222.891 290.24ZM250.995 293.48C248.835 293.48 247.182 292.853 246.035 291.6C244.888 290.32 244.315 288.507 244.315 286.16V267.84H237.795V264.64H248.275V286.4C248.275 287.76 248.622 288.747 249.315 289.36C250.008 289.947 250.875 290.24 251.915 290.24C252.448 290.24 252.995 290.173 253.555 290.04C254.142 289.907 254.782 289.693 255.475 289.4L256.435 292.36C255.502 292.68 254.635 292.947 253.835 293.16C253.062 293.373 252.115 293.48 250.995 293.48ZM271.099 293V276.64H262.339V273.44H275.059V293H271.099ZM272.739 269.64C271.886 269.64 271.179 269.387 270.619 268.88C270.059 268.347 269.779 267.653 269.779 266.8C269.779 265.947 270.059 265.267 270.619 264.76C271.179 264.227 271.886 263.96 272.739 263.96C273.593 263.96 274.299 264.227 274.859 264.76C275.419 265.267 275.699 265.947 275.699 266.8C275.699 267.653 275.419 268.347 274.859 268.88C274.299 269.387 273.593 269.64 272.739 269.64ZM294.844 293.48C293.137 293.48 291.537 293.08 290.044 292.28C288.577 291.48 287.377 290.32 286.444 288.8C285.537 287.253 285.084 285.4 285.084 283.24C285.084 281.08 285.537 279.24 286.444 277.72C287.377 276.173 288.577 275 290.044 274.2C291.537 273.373 293.137 272.96 294.844 272.96C296.55 272.96 298.137 273.373 299.604 274.2C301.097 275 302.297 276.173 303.204 277.72C304.137 279.24 304.604 281.08 304.604 283.24C304.604 285.4 304.137 287.253 303.204 288.8C302.297 290.32 301.097 291.48 299.604 292.28C298.137 293.08 296.55 293.48 294.844 293.48ZM294.844 290.24C295.99 290.24 296.99 289.947 297.844 289.36C298.697 288.773 299.35 287.96 299.804 286.92C300.284 285.88 300.524 284.653 300.524 283.24C300.524 281.853 300.284 280.64 299.804 279.6C299.35 278.533 298.697 277.707 297.844 277.12C296.99 276.533 295.99 276.24 294.844 276.24C293.697 276.24 292.697 276.533 291.844 277.12C290.99 277.707 290.324 278.533 289.844 279.6C289.39 280.64 289.164 281.853 289.164 283.24C289.164 284.653 289.39 285.88 289.844 286.92C290.324 287.96 290.99 288.773 291.844 289.36C292.697 289.947 293.697 290.24 294.844 290.24Z" fill="#00C950"/>
</svg>
