<svg width="412" height="412" viewBox="0 0 412 412" fill="none" xmlns="http://www.w3.org/2000/svg">
<g filter="url(#filter0_d_3_11)">
<rect x="13.912" y="3.47803" width="384" height="384" rx="27.824" fill="#0D0E0E"/>
<rect x="14.3468" y="3.91278" width="383.13" height="383.13" rx="27.3893" stroke="#F1F2F9" stroke-width="0.8695"/>
<path d="M252.949 235.805C252.103 235.805 251.214 235.72 250.326 235.466C244.529 234.028 240.975 228.146 242.414 222.35L264.077 135.696C265.558 129.9 271.439 126.388 277.236 127.784C283.032 129.265 286.544 135.146 285.106 140.943L263.442 227.596C262.215 232.504 257.815 235.805 252.949 235.805Z" fill="#666666"/>
<path d="M313.713 214.105C310.921 214.105 308.171 213.047 306.055 210.931C301.824 206.7 301.824 199.846 306.055 195.615L320.06 181.609L306.055 167.604C301.824 163.373 301.824 156.519 306.055 152.288C310.286 148.057 317.141 148.057 321.372 152.288L343.035 173.951C347.266 178.182 347.266 185.037 343.035 189.268L321.372 210.931C319.256 213.047 316.506 214.105 313.713 214.105Z" fill="#B8B8B8"/>
<path d="M98.4071 214.105C95.6146 214.105 92.8643 213.047 90.7488 210.931L69.0854 189.268C64.8542 185.037 64.8542 178.182 69.0854 173.951L90.7488 152.288C94.9799 148.057 101.834 148.057 106.065 152.288C110.297 156.519 110.297 163.373 106.065 167.604L92.0604 181.609L106.065 195.615C110.297 199.846 110.297 206.7 106.065 210.931C103.95 213.047 101.2 214.105 98.4071 214.105Z" fill="#B8B8B8"/>
<path d="M184.934 144.401L219.494 215.825C220.944 218.726 221.67 220.902 221.67 222.353C221.67 225.425 219.195 228.198 214.246 230.673C211.344 232.124 209.04 232.849 207.334 232.849C205.712 232.849 204.347 232.465 203.238 231.697C202.214 230.929 201.446 230.118 200.934 229.265C200.507 228.412 199.867 227.132 199.014 225.425L192.358 211.601H156.902L150.246 225.425C149.392 227.132 148.71 228.369 148.198 229.137C147.771 229.905 147.003 230.716 145.894 231.569C144.87 232.337 143.504 232.721 141.798 232.721C140.176 232.721 137.915 231.996 135.014 230.545C130.064 228.156 127.59 225.425 127.59 222.353C127.59 220.902 128.315 218.726 129.766 215.825L164.326 144.273C165.264 142.31 166.672 140.732 168.55 139.537C170.512 138.342 172.56 137.745 174.694 137.745C179.302 137.745 182.715 139.964 184.934 144.401ZM174.566 175.121L166.118 192.657H183.142L174.566 175.121Z" fill="white"/>
</g>
<defs>
<filter id="filter0_d_3_11" x="1.38283e-05" y="2.6226e-05" width="411.824" height="411.824" filterUnits="userSpaceOnUse" color-interpolation-filters="sRGB">
<feFlood flood-opacity="0" result="BackgroundImageFix"/>
<feColorMatrix in="SourceAlpha" type="matrix" values="0 0 0 0 0 0 0 0 0 0 0 0 0 0 0 0 0 0 127 0" result="hardAlpha"/>
<feMorphology radius="3.478" operator="erode" in="SourceAlpha" result="effect1_dropShadow_3_11"/>
<feOffset dy="10.434"/>
<feGaussianBlur stdDeviation="8.695"/>
<feColorMatrix type="matrix" values="0 0 0 0 0.586519 0 0 0 0 0.564364 0 0 0 0 0.607244 0 0 0 0.22 0"/>
<feBlend mode="normal" in2="BackgroundImageFix" result="effect1_dropShadow_3_11"/>
<feBlend mode="normal" in="SourceGraphic" in2="effect1_dropShadow_3_11" result="shape"/>
</filter>
</defs>
</svg>
