<svg width="384" height="384" viewBox="0 0 384 384" fill="none" xmlns="http://www.w3.org/2000/svg">
<rect width="384" height="384" rx="27.824" fill="#0D0E0E"/>
<circle cx="43" cy="40" r="11" fill="#ED6A5E"/>
<circle cx="81" cy="40" r="11" fill="#F4BF4F"/>
<circle cx="119" cy="40" r="11" fill="#61C554"/>
<path d="M87.2 322.44L89 319.72C90.0667 320.467 91.2 321.107 92.4 321.64C93.6267 322.147 94.96 322.4 96.4 322.4C97.8133 322.4 98.88 322.12 99.6 321.56C100.347 320.973 100.72 320.227 100.72 319.32C100.72 318.573 100.413 317.947 99.8 317.44C99.2133 316.933 98.4533 316.48 97.52 316.08C96.5867 315.68 95.5867 315.28 94.52 314.88C93.4533 314.48 92.4533 314.013 91.52 313.48C90.5867 312.947 89.8133 312.28 89.2 311.48C88.6133 310.68 88.32 309.707 88.32 308.56C88.32 307.28 88.6533 306.173 89.32 305.24C90.0133 304.28 90.9733 303.547 92.2 303.04C93.4267 302.533 94.8267 302.28 96.4 302.28C98.1867 302.28 99.6667 302.587 100.84 303.2C102.013 303.787 103.053 304.533 103.96 305.44L101.92 307.76C101.013 307.04 100.133 306.493 99.28 306.12C98.4533 305.72 97.4 305.52 96.12 305.52C94.8933 305.52 93.92 305.787 93.2 306.32C92.5067 306.853 92.16 307.573 92.16 308.48C92.16 309.12 92.4533 309.68 93.04 310.16C93.6533 310.613 94.4267 311.027 95.36 311.4C96.32 311.747 97.32 312.12 98.36 312.52C99.4267 312.92 100.427 313.4 101.36 313.96C102.32 314.493 103.093 315.173 103.68 316C104.293 316.8 104.6 317.813 104.6 319.04C104.6 320.347 104.24 321.493 103.52 322.48C102.8 323.467 101.787 324.24 100.48 324.8C99.1733 325.36 97.64 325.64 95.88 325.64C94.84 325.64 93.7733 325.507 92.68 325.24C91.6133 324.947 90.6133 324.56 89.68 324.08C88.7467 323.6 87.92 323.053 87.2 322.44ZM94.84 303.68V297.12H97.6V303.68H94.84ZM94.84 324.16H97.6V331.4H94.84V324.16ZM141.609 327.48C140.355 327.48 139.222 327.253 138.209 326.8C137.222 326.32 136.435 325.667 135.849 324.84C135.289 323.987 135.009 322.987 135.009 321.84C135.009 319.653 136.075 317.987 138.209 316.84C140.369 315.693 143.902 314.933 148.809 314.56C148.782 313.76 148.595 313.027 148.249 312.36C147.929 311.693 147.409 311.173 146.689 310.8C145.995 310.4 145.075 310.2 143.929 310.2C143.129 310.2 142.342 310.307 141.569 310.52C140.795 310.707 140.049 310.973 139.329 311.32C138.609 311.667 137.929 312.027 137.289 312.4L135.809 309.72C136.529 309.293 137.355 308.867 138.289 308.44C139.222 307.987 140.222 307.627 141.289 307.36C142.382 307.093 143.489 306.96 144.609 306.96C146.422 306.96 147.929 307.293 149.129 307.96C150.329 308.627 151.235 309.573 151.849 310.8C152.462 312.027 152.769 313.507 152.769 315.24V327H149.529L149.209 324.48H149.089C148.049 325.28 146.875 325.987 145.569 326.6C144.262 327.187 142.942 327.48 141.609 327.48ZM142.729 324.32C143.769 324.32 144.795 324.093 145.809 323.64C146.822 323.187 147.822 322.547 148.809 321.72V317.08C146.249 317.267 144.235 317.56 142.769 317.96C141.329 318.36 140.315 318.867 139.729 319.48C139.142 320.067 138.849 320.76 138.849 321.56C138.849 322.2 139.022 322.733 139.369 323.16C139.742 323.56 140.222 323.853 140.809 324.04C141.395 324.227 142.035 324.32 142.729 324.32ZM167.593 335.84C165.753 335.84 164.153 335.627 162.793 335.2C161.46 334.8 160.433 334.2 159.713 333.4C158.993 332.627 158.633 331.667 158.633 330.52C158.633 329.72 158.9 328.947 159.433 328.2C159.966 327.48 160.753 326.84 161.793 326.28V326.12C161.286 325.8 160.82 325.387 160.393 324.88C159.993 324.373 159.793 323.707 159.793 322.88C159.793 322.24 159.993 321.6 160.393 320.96C160.82 320.293 161.393 319.707 162.113 319.2V319.04C161.446 318.533 160.873 317.853 160.393 317C159.913 316.147 159.673 315.147 159.673 314C159.673 312.533 160.033 311.28 160.753 310.24C161.5 309.2 162.46 308.4 163.633 307.84C164.833 307.253 166.14 306.96 167.553 306.96C168.673 306.96 169.66 307.12 170.513 307.44H178.553V310.56H173.793C174.193 310.987 174.526 311.52 174.793 312.16C175.086 312.773 175.233 313.427 175.233 314.12C175.233 315.56 174.886 316.773 174.193 317.76C173.526 318.747 172.606 319.507 171.433 320.04C170.286 320.547 168.993 320.8 167.553 320.8C167.073 320.8 166.553 320.747 165.993 320.64C165.46 320.533 164.926 320.373 164.393 320.16C163.966 320.453 163.633 320.76 163.393 321.08C163.153 321.4 163.033 321.773 163.033 322.2C163.033 322.893 163.366 323.413 164.033 323.76C164.7 324.08 165.66 324.24 166.913 324.24H171.073C173.606 324.24 175.5 324.6 176.753 325.32C178.033 326.04 178.673 327.24 178.673 328.92C178.673 330.173 178.22 331.32 177.313 332.36C176.406 333.427 175.126 334.267 173.473 334.88C171.82 335.52 169.86 335.84 167.593 335.84ZM167.553 318.24C168.3 318.24 168.98 318.08 169.593 317.76C170.206 317.413 170.7 316.92 171.073 316.28C171.446 315.64 171.633 314.88 171.633 314C171.633 313.147 171.446 312.413 171.073 311.8C170.7 311.16 170.206 310.667 169.593 310.32C168.98 309.947 168.3 309.76 167.553 309.76C166.806 309.76 166.113 309.947 165.473 310.32C164.86 310.667 164.366 311.16 163.993 311.8C163.62 312.413 163.433 313.147 163.433 314C163.433 314.88 163.62 315.64 163.993 316.28C164.366 316.92 164.86 317.413 165.473 317.76C166.113 318.08 166.806 318.24 167.553 318.24ZM167.993 333.08C169.406 333.08 170.62 332.907 171.633 332.56C172.646 332.24 173.42 331.813 173.953 331.28C174.513 330.773 174.793 330.213 174.793 329.6C174.793 328.72 174.446 328.133 173.753 327.84C173.06 327.573 172.02 327.44 170.633 327.44H167.153C166.54 327.44 165.993 327.413 165.513 327.36C165.033 327.307 164.593 327.227 164.193 327.12C163.366 327.573 162.78 328.04 162.433 328.52C162.113 329.027 161.953 329.533 161.953 330.04C161.953 330.973 162.473 331.707 163.513 332.24C164.553 332.8 166.046 333.08 167.993 333.08ZM207.842 327V298.64H211.802V317.12H211.962L221.602 307.44H226.042L211.802 321.8V327H207.842ZM222.642 327L215.482 317L217.842 314.48L227.002 327H222.642ZM239.906 327.48C238.2 327.48 236.6 327.08 235.106 326.28C233.64 325.48 232.44 324.32 231.506 322.8C230.6 321.253 230.146 319.4 230.146 317.24C230.146 315.08 230.6 313.24 231.506 311.72C232.44 310.173 233.64 309 235.106 308.2C236.6 307.373 238.2 306.96 239.906 306.96C241.613 306.96 243.2 307.373 244.666 308.2C246.16 309 247.36 310.173 248.266 311.72C249.2 313.24 249.666 315.08 249.666 317.24C249.666 319.4 249.2 321.253 248.266 322.8C247.36 324.32 246.16 325.48 244.666 326.28C243.2 327.08 241.613 327.48 239.906 327.48ZM239.906 324.24C241.053 324.24 242.053 323.947 242.906 323.36C243.76 322.773 244.413 321.96 244.866 320.92C245.346 319.88 245.586 318.653 245.586 317.24C245.586 315.853 245.346 314.64 244.866 313.6C244.413 312.533 243.76 311.707 242.906 311.12C242.053 310.533 241.053 310.24 239.906 310.24C238.76 310.24 237.76 310.533 236.906 311.12C236.053 311.707 235.386 312.533 234.906 313.6C234.453 314.64 234.226 315.853 234.226 317.24C234.226 318.653 234.453 319.88 234.906 320.92C235.386 321.96 236.053 322.773 236.906 323.36C237.76 323.947 238.76 324.24 239.906 324.24ZM267.611 327.48C265.637 327.48 264.077 327.133 262.931 326.44C261.811 325.747 261.011 324.787 260.531 323.56C260.051 322.333 259.811 320.907 259.811 319.28V310.64H254.451V307.68L259.971 307.44L260.491 301.28H263.771V307.44H273.011V310.64H263.771V319.28C263.771 320.373 263.917 321.307 264.211 322.08C264.504 322.827 264.997 323.387 265.691 323.76C266.384 324.107 267.317 324.28 268.491 324.28C269.371 324.28 270.171 324.213 270.891 324.08C271.611 323.92 272.304 323.72 272.971 323.48L273.771 326.36C272.891 326.653 271.944 326.907 270.931 327.12C269.944 327.36 268.837 327.48 267.611 327.48ZM285.475 327.48C283.182 327.48 281.488 326.8 280.395 325.44C279.328 324.08 278.795 322.12 278.795 319.56V307.44H282.755V319.04C282.755 320.773 283.062 322.053 283.675 322.88C284.315 323.68 285.368 324.08 286.835 324.08C287.875 324.08 288.808 323.827 289.635 323.32C290.462 322.813 291.355 321.987 292.315 320.84V307.44H296.275V327H293.035L292.715 323.76H292.555C291.595 324.853 290.542 325.747 289.395 326.44C288.275 327.133 286.968 327.48 285.475 327.48Z" fill="#00C950"/>
<path d="M101.104 230.856L53.36 198.472V190.536L101.104 158.152V168.264L62.576 194.248V194.76L101.104 220.744V230.856ZM118.846 237L147.134 153.032H159.166L187.454 237H176.19L161.598 190.024C160.147 185.331 158.697 180.68 157.246 176.072C155.881 171.379 154.558 166.6 153.278 161.736H152.766C151.401 166.6 150.035 171.379 148.67 176.072C147.305 180.68 145.897 185.331 144.446 190.024L129.726 237H118.846ZM133.694 211.4V202.824H172.222V211.4H133.694ZM204.172 257.48L246.156 146.12H255.628L213.644 257.48H204.172ZM281.946 230.856V220.744L320.474 194.76V194.248L281.946 168.264V158.152L329.69 190.536V198.472L281.946 230.856Z" fill="#00C950"/>
</svg>
