<svg width="384" height="384" viewBox="0 0 384 384" fill="none" xmlns="http://www.w3.org/2000/svg">
<g filter="url(#filter0_i_19_44)">
<rect width="384" height="384" rx="27.824" fill="white"/>
<path d="M66.4725 347.432C64.5285 347.432 62.8005 346.988 61.2885 346.1C59.8005 345.188 58.6365 343.964 57.7965 342.428C56.9565 340.868 56.5365 339.128 56.5365 337.208C56.5365 335.24 56.9565 333.5 57.7965 331.988C58.6605 330.476 59.8125 329.288 61.2525 328.424C62.6925 327.536 64.3245 327.092 66.1485 327.092C67.6125 327.092 68.9205 327.344 70.0725 327.848C71.2245 328.352 72.1965 329.048 72.9885 329.936C73.7805 330.8 74.3805 331.796 74.7885 332.924C75.2205 334.052 75.4365 335.252 75.4365 336.524C75.4365 336.836 75.4245 337.16 75.4005 337.496C75.3765 337.832 75.3285 338.144 75.2565 338.432H59.7405V335.192H72.9525L71.0085 336.668C71.2485 335.492 71.1645 334.448 70.7565 333.536C70.3725 332.6 69.7725 331.868 68.9565 331.34C68.1645 330.788 67.2285 330.512 66.1485 330.512C65.0685 330.512 64.1085 330.788 63.2685 331.34C62.4285 331.868 61.7805 332.636 61.3245 333.644C60.8685 334.628 60.6885 335.828 60.7845 337.244C60.6645 338.564 60.8445 339.716 61.3245 340.7C61.8285 341.684 62.5245 342.452 63.4125 343.004C64.3245 343.556 65.3565 343.832 66.5085 343.832C67.6845 343.832 68.6805 343.568 69.4965 343.04C70.3365 342.512 70.9965 341.828 71.4765 340.988L74.7885 342.608C74.4045 343.52 73.8045 344.348 72.9885 345.092C72.1965 345.812 71.2365 346.388 70.1085 346.82C69.0045 347.228 67.7925 347.432 66.4725 347.432ZM78.9386 339.044V335.444H93.3386V339.044H78.9386ZM106.061 347.216C104.021 347.216 102.437 346.64 101.309 345.488C100.181 344.336 99.6172 342.716 99.6172 340.628V331.196H96.1972V327.524H96.7372C97.6492 327.524 98.3572 327.26 98.8612 326.732C99.3652 326.204 99.6172 325.484 99.6172 324.572V323.06H103.685V327.524H108.113V331.196H103.685V340.448C103.685 341.12 103.793 341.696 104.009 342.176C104.225 342.632 104.573 342.992 105.053 343.256C105.533 343.496 106.157 343.616 106.925 343.616C107.117 343.616 107.333 343.604 107.573 343.58C107.813 343.556 108.041 343.532 108.257 343.508V347C107.921 347.048 107.549 347.096 107.141 347.144C106.733 347.192 106.373 347.216 106.061 347.216ZM111.147 347V319.748H115.215V331.34L114.567 330.836C115.047 329.612 115.815 328.688 116.871 328.064C117.927 327.416 119.151 327.092 120.543 327.092C121.983 327.092 123.255 327.404 124.359 328.028C125.463 328.652 126.327 329.516 126.951 330.62C127.575 331.724 127.887 332.984 127.887 334.4V347H123.855V335.516C123.855 334.532 123.663 333.704 123.279 333.032C122.919 332.336 122.415 331.808 121.767 331.448C121.119 331.064 120.375 330.872 119.535 330.872C118.719 330.872 117.975 331.064 117.303 331.448C116.655 331.808 116.139 332.336 115.755 333.032C115.395 333.728 115.215 334.556 115.215 335.516V347H111.147ZM131.161 347V327.524H135.049V331.448L134.689 330.872C135.121 329.6 135.817 328.688 136.777 328.136C137.737 327.56 138.889 327.272 140.233 327.272H141.421V330.98H139.729C138.385 330.98 137.293 331.4 136.453 332.24C135.637 333.056 135.229 334.232 135.229 335.768V347H131.161ZM143.124 347V327.524H147.192V347H143.124ZM143.124 324.86V320.18H147.192V324.86H143.124ZM153.064 347V331.196H149.464V327.524H153.064V326.516C153.064 325.052 153.364 323.828 153.964 322.844C154.564 321.836 155.392 321.068 156.448 320.54C157.528 320.012 158.764 319.748 160.156 319.748C160.42 319.748 160.72 319.772 161.056 319.82C161.392 319.844 161.668 319.88 161.884 319.928V323.456C161.692 323.408 161.476 323.384 161.236 323.384C160.996 323.36 160.804 323.348 160.66 323.348C159.58 323.348 158.716 323.6 158.068 324.104C157.42 324.584 157.096 325.388 157.096 326.516V327.524H161.56V331.196H157.096V347H153.064ZM173.4 347.216C171.36 347.216 169.776 346.64 168.648 345.488C167.52 344.336 166.956 342.716 166.956 340.628V331.196H163.536V327.524H164.076C164.988 327.524 165.696 327.26 166.2 326.732C166.704 326.204 166.956 325.484 166.956 324.572V323.06H171.024V327.524H175.452V331.196H171.024V340.448C171.024 341.12 171.132 341.696 171.348 342.176C171.564 342.632 171.912 342.992 172.392 343.256C172.872 343.496 173.496 343.616 174.264 343.616C174.456 343.616 174.672 343.604 174.912 343.58C175.152 343.556 175.38 343.532 175.596 343.508V347C175.26 347.048 174.888 347.096 174.48 347.144C174.072 347.192 173.712 347.216 173.4 347.216ZM178.485 347V327.524H182.553V347H178.485ZM178.485 324.86V320.18H182.553V324.86H178.485ZM186.23 347V327.524H190.118V331.34L189.65 330.836C190.13 329.612 190.898 328.688 191.954 328.064C193.01 327.416 194.234 327.092 195.626 327.092C197.066 327.092 198.338 327.404 199.442 328.028C200.546 328.652 201.41 329.516 202.034 330.62C202.658 331.724 202.97 332.996 202.97 334.436V347H198.938V335.516C198.938 334.532 198.758 333.704 198.398 333.032C198.038 332.336 197.522 331.808 196.85 331.448C196.202 331.064 195.458 330.872 194.618 330.872C193.778 330.872 193.022 331.064 192.35 331.448C191.702 331.808 191.198 332.336 190.838 333.032C190.478 333.728 190.298 334.556 190.298 335.516V347H186.23ZM215.639 354.92C214.223 354.92 212.915 354.692 211.715 354.236C210.515 353.78 209.483 353.144 208.619 352.328C207.755 351.536 207.107 350.6 206.675 349.52L210.419 347.972C210.755 348.884 211.367 349.64 212.255 350.24C213.167 350.84 214.283 351.14 215.603 351.14C216.635 351.14 217.559 350.936 218.375 350.528C219.191 350.144 219.839 349.568 220.319 348.8C220.799 348.056 221.039 347.156 221.039 346.1V341.708L221.759 342.536C221.087 343.784 220.151 344.732 218.951 345.38C217.775 346.028 216.443 346.352 214.955 346.352C213.155 346.352 211.535 345.932 210.095 345.092C208.655 344.252 207.515 343.1 206.675 341.636C205.859 340.172 205.451 338.528 205.451 336.704C205.451 334.856 205.859 333.212 206.675 331.772C207.515 330.332 208.643 329.192 210.059 328.352C211.475 327.512 213.095 327.092 214.919 327.092C216.407 327.092 217.727 327.416 218.879 328.064C220.055 328.688 221.015 329.6 221.759 330.8L221.219 331.808V327.524H225.071V346.1C225.071 347.78 224.663 349.28 223.847 350.6C223.055 351.944 221.951 353 220.535 353.768C219.119 354.536 217.487 354.92 215.639 354.92ZM215.423 342.572C216.503 342.572 217.463 342.32 218.303 341.816C219.143 341.288 219.803 340.592 220.283 339.728C220.787 338.84 221.039 337.844 221.039 336.74C221.039 335.636 220.787 334.64 220.283 333.752C219.779 332.864 219.107 332.168 218.267 331.664C217.427 331.136 216.479 330.872 215.423 330.872C214.319 330.872 213.335 331.136 212.471 331.664C211.607 332.168 210.923 332.864 210.419 333.752C209.939 334.616 209.699 335.612 209.699 336.74C209.699 337.82 209.939 338.804 210.419 339.692C210.923 340.58 211.607 341.288 212.471 341.816C213.335 342.32 214.319 342.572 215.423 342.572ZM230.553 347V342.32H234.693V347H230.553ZM249.406 347.432C247.462 347.432 245.734 346.988 244.222 346.1C242.734 345.188 241.546 343.964 240.658 342.428C239.794 340.892 239.362 339.152 239.362 337.208C239.362 335.288 239.794 333.56 240.658 332.024C241.522 330.488 242.71 329.288 244.222 328.424C245.734 327.536 247.462 327.092 249.406 327.092C250.726 327.092 251.962 327.332 253.114 327.812C254.266 328.268 255.262 328.904 256.102 329.72C256.966 330.536 257.602 331.484 258.01 332.564L254.446 334.22C254.038 333.212 253.378 332.408 252.466 331.808C251.578 331.184 250.558 330.872 249.406 330.872C248.302 330.872 247.306 331.148 246.418 331.7C245.554 332.228 244.87 332.984 244.366 333.968C243.862 334.928 243.61 336.02 243.61 337.244C243.61 338.468 243.862 339.572 244.366 340.556C244.87 341.516 245.554 342.272 246.418 342.824C247.306 343.376 248.302 343.652 249.406 343.652C250.582 343.652 251.602 343.352 252.466 342.752C253.354 342.128 254.014 341.3 254.446 340.268L258.01 341.96C257.626 342.992 257.002 343.928 256.138 344.768C255.298 345.584 254.302 346.232 253.15 346.712C251.998 347.192 250.75 347.432 249.406 347.432ZM270.302 347.432C268.43 347.432 266.714 346.988 265.154 346.1C263.618 345.212 262.394 344 261.482 342.464C260.57 340.928 260.114 339.188 260.114 337.244C260.114 335.276 260.57 333.536 261.482 332.024C262.394 330.488 263.618 329.288 265.154 328.424C266.69 327.536 268.406 327.092 270.302 327.092C272.222 327.092 273.938 327.536 275.45 328.424C276.986 329.288 278.198 330.488 279.086 332.024C279.998 333.536 280.454 335.276 280.454 337.244C280.454 339.212 279.998 340.964 279.086 342.5C278.174 344.036 276.95 345.248 275.414 346.136C273.878 347 272.174 347.432 270.302 347.432ZM270.302 343.652C271.454 343.652 272.474 343.376 273.362 342.824C274.25 342.272 274.946 341.516 275.45 340.556C275.978 339.572 276.242 338.468 276.242 337.244C276.242 336.02 275.978 334.928 275.45 333.968C274.946 333.008 274.25 332.252 273.362 331.7C272.474 331.148 271.454 330.872 270.302 330.872C269.174 330.872 268.154 331.148 267.242 331.7C266.354 332.252 265.646 333.008 265.118 333.968C264.614 334.928 264.362 336.02 264.362 337.244C264.362 338.468 264.614 339.572 265.118 340.556C265.646 341.516 266.354 342.272 267.242 342.824C268.154 343.376 269.174 343.652 270.302 343.652ZM285.145 347V342.32H289.285V347H285.145ZM292.982 347V343.652L304.43 329.792L305.078 331.196H293.522V327.524H308.678V330.836L297.374 344.732L296.726 343.292H308.714V347H292.982ZM316.443 347.432C315.123 347.432 313.959 347.204 312.951 346.748C311.967 346.268 311.199 345.62 310.647 344.804C310.095 343.964 309.819 342.98 309.819 341.852C309.819 340.796 310.047 339.848 310.503 339.008C310.983 338.168 311.715 337.46 312.699 336.884C313.683 336.308 314.919 335.9 316.407 335.66L323.175 334.544V337.748L317.199 338.792C316.119 338.984 315.327 339.332 314.823 339.836C314.319 340.316 314.067 340.94 314.067 341.708C314.067 342.452 314.343 343.064 314.895 343.544C315.471 344 316.203 344.228 317.091 344.228C318.195 344.228 319.155 343.988 319.971 343.508C320.811 343.028 321.459 342.392 321.915 341.6C322.371 340.784 322.599 339.884 322.599 338.9V333.896C322.599 332.936 322.239 332.156 321.519 331.556C320.823 330.932 319.887 330.62 318.711 330.62C317.631 330.62 316.683 330.908 315.867 331.484C315.075 332.036 314.487 332.756 314.103 333.644L310.719 331.952C311.079 330.992 311.667 330.152 312.483 329.432C313.299 328.688 314.247 328.112 315.327 327.704C316.431 327.296 317.595 327.092 318.819 327.092C320.355 327.092 321.711 327.38 322.887 327.956C324.087 328.532 325.011 329.336 325.659 330.368C326.331 331.376 326.667 332.552 326.667 333.896V347H322.779V343.472L323.607 343.58C323.151 344.372 322.563 345.056 321.843 345.632C321.147 346.208 320.343 346.652 319.431 346.964C318.543 347.276 317.547 347.432 316.443 347.432Z" fill="#007AFF"/>
<path d="M122.514 156.501C122.586 155.63 122.623 155.195 122.91 154.931C123.197 154.667 123.633 154.667 124.507 154.667H259.493C260.367 154.667 260.803 154.667 261.09 154.931C261.377 155.195 261.414 155.63 261.486 156.501L271.278 274.002C271.616 278.057 271.785 280.084 270.596 281.375C269.408 282.667 267.374 282.667 263.306 282.667H120.694C116.626 282.667 114.592 282.667 113.404 281.375C112.215 280.084 112.384 278.057 112.722 274.002L122.514 156.501Z" stroke="#007AFF" stroke-opacity="0.25" stroke-width="5"/>
<path d="M154.667 138.667L154.667 133.333C154.667 112.715 171.381 96.0001 192 96.0001C212.619 96.0001 229.333 112.715 229.333 133.333L229.333 138.667" stroke="#007AFF" stroke-width="5"/>
<path d="M154.667 197.333V181.333" stroke="#007AFF" stroke-width="5" stroke-linecap="round"/>
<path d="M229.333 197.333V181.333" stroke="#007AFF" stroke-width="5" stroke-linecap="round"/>
</g>
<defs>
<filter id="filter0_i_19_44" x="0" y="0" width="384" height="394.434" filterUnits="userSpaceOnUse" color-interpolation-filters="sRGB">
<feFlood flood-opacity="0" result="BackgroundImageFix"/>
<feBlend mode="normal" in="SourceGraphic" in2="BackgroundImageFix" result="shape"/>
<feColorMatrix in="SourceAlpha" type="matrix" values="0 0 0 0 0 0 0 0 0 0 0 0 0 0 0 0 0 0 127 0" result="hardAlpha"/>
<feMorphology radius="3.478" operator="dilate" in="SourceAlpha" result="effect1_innerShadow_19_44"/>
<feOffset dy="10.434"/>
<feGaussianBlur stdDeviation="8.695"/>
<feComposite in2="hardAlpha" operator="arithmetic" k2="-1" k3="1"/>
<feColorMatrix type="matrix" values="0 0 0 0 0.586519 0 0 0 0 0.564364 0 0 0 0 0.607244 0 0 0 0.22 0"/>
<feBlend mode="normal" in2="shape" result="effect1_innerShadow_19_44"/>
</filter>
</defs>
</svg>
